# xmcd
#
# Track frame offsets:
#	150
#	10992
#	28592
#	42838
#	71519
#
# Disc length: 1177 seconds
# Revision: 0
# Processed by: cddbd v1.5.2PL0 Copyright (c) Steve Scherf et al.
# Submitted via: dBpowerAMP V12.0
#
DISCID=37049705
DTITLE=Tanel Padar Blues Band - Goldfish [EP]
DYEAR=2016
DGENRE=Blues
TTITLE0=Just a Little Bit
TTITLE1=Break Free
TTITLE2=Goldfish
TTITLE3=She Was Meant to Be
TTITLE4=Shadow
EXTD=
EXTT0=
EXTT1=
EXTT2=
EXTT3=
EXTT4=
PLAYORDER=
